<?xml version="1.0" encoding="UTF-8"?>
<svg xmlns="http://www.w3.org/2000/svg" viewBox="0 0 360 220" fill="none" role="img" aria-label="Burpee form: stand, plank, jump">
  <title>Burpee form diagram</title>
  <rect width="360" height="220" fill="#f3f2f2"></rect>
  <text x="60" y="28" text-anchor="middle" fill="#6f6b69" font-family="Archivo, system-ui, sans-serif" font-size="11" letter-spacing="0.5">STAND</text>
  <text x="180" y="28" text-anchor="middle" fill="#6f6b69" font-family="Archivo, system-ui, sans-serif" font-size="11" letter-spacing="0.5">PLANK</text>
  <text x="300" y="28" text-anchor="middle" fill="#6f6b69" font-family="Archivo, system-ui, sans-serif" font-size="11" letter-spacing="0.5">JUMP</text>
  <line x1="20" y1="185" x2="100" y2="185" stroke="#201e1d" stroke-width="2"></line>
  <line x1="140" y1="185" x2="220" y2="185" stroke="#201e1d" stroke-width="2"></line>
  <line x1="260" y1="185" x2="340" y2="185" stroke="#201e1d" stroke-width="2"></line>
  <g stroke="#201e1d" stroke-width="2.5" stroke-linecap="round" stroke-linejoin="round" fill="none">
    <circle cx="60" cy="54" r="9"></circle>
    <line x1="60" y1="54" x2="60" y2="67"></line>
    <line x1="60" y1="67" x2="60" y2="115"></line>
    <line x1="60" y1="67" x2="60" y2="71"></line>
    <line x1="60" y1="71" x2="52" y2="89"></line>
    <line x1="52" y1="89" x2="50" y2="107"></line>
    <line x1="60" y1="71" x2="68" y2="89"></line>
    <line x1="68" y1="89" x2="70" y2="107"></line>
    <line x1="60" y1="115" x2="50" y2="143"></line>
    <line x1="50" y1="143" x2="46" y2="185"></line>
    <line x1="60" y1="115" x2="68" y2="145"></line>
    <line x1="68" y1="145" x2="70" y2="185"></line>
  </g>
  <g stroke="#201e1d" stroke-width="2.5" stroke-linecap="round" stroke-linejoin="round" fill="none">
    <circle cx="228" cy="134" r="9"></circle>
    <line x1="228" y1="134" x2="216" y2="138"></line>
    <line x1="216" y1="138" x2="160" y2="142"></line>
    <line x1="216" y1="138" x2="212" y2="140"></line>
    <line x1="212" y1="140" x2="208" y2="168"></line>
    <line x1="208" y1="168" x2="210" y2="180"></line>
    <line x1="212" y1="140" x2="202" y2="170"></line>
    <line x1="202" y1="170" x2="204" y2="180"></line>
    <line x1="160" y1="142" x2="145" y2="144"></line>
    <line x1="145" y1="144" x2="125" y2="180"></line>
    <line x1="160" y1="142" x2="140" y2="146"></line>
    <line x1="140" y1="146" x2="130" y2="180"></line>
  </g>
  <g stroke="#201e1d" stroke-width="2.5" stroke-linecap="round" stroke-linejoin="round" fill="none">
    <circle cx="300" cy="54" r="9"></circle>
    <line x1="300" y1="54" x2="300" y2="67"></line>
    <line x1="300" y1="67" x2="300" y2="115"></line>
    <line x1="300" y1="67" x2="300" y2="71"></line>
    <line x1="300" y1="71" x2="294" y2="45"></line>
    <line x1="294" y1="45" x2="296" y2="25"></line>
    <line x1="300" y1="71" x2="306" y2="45"></line>
    <line x1="306" y1="45" x2="304" y2="25"></line>
    <line x1="300" y1="115" x2="290" y2="143"></line>
    <line x1="290" y1="143" x2="286" y2="185"></line>
    <line x1="300" y1="115" x2="308" y2="145"></line>
    <line x1="308" y1="145" x2="310" y2="185"></line>
  </g>
  <path d="M300 160 L300 130" stroke="#ec3013" stroke-width="2" stroke-linecap="round"></path>
  <polygon points="300,130 304,138 296,138" fill="#ec3013"></polygon>
  <text x="310" y="145" fill="#ec3013" font-family="Archivo, system-ui, sans-serif" font-size="9">up</text>
</svg>
