<?xml version="1.0" encoding="UTF-8"?>
<svg xmlns="http://www.w3.org/2000/svg" viewBox="0 0 360 220" fill="none" role="img" aria-label="Calf raise: flat, rise, lower">
  <title>Calf raise form diagram</title>
  <rect width="360" height="220" fill="#f3f2f2"></rect>
  <text x="60" y="28" text-anchor="middle" fill="#6f6b69" font-family="Archivo, system-ui, sans-serif" font-size="11" letter-spacing="0.5">FLAT</text>
  <text x="180" y="28" text-anchor="middle" fill="#6f6b69" font-family="Archivo, system-ui, sans-serif" font-size="11" letter-spacing="0.5">RISE</text>
  <text x="300" y="28" text-anchor="middle" fill="#6f6b69" font-family="Archivo, system-ui, sans-serif" font-size="11" letter-spacing="0.5">LOWER</text>
  <line x1="20" y1="185" x2="100" y2="185" stroke="#201e1d" stroke-width="2"></line>
  <line x1="140" y1="185" x2="220" y2="185" stroke="#201e1d" stroke-width="2"></line>
  <line x1="260" y1="185" x2="340" y2="185" stroke="#201e1d" stroke-width="2"></line>
  <g stroke="#201e1d" stroke-width="2.5" stroke-linecap="round" stroke-linejoin="round" fill="none">
    <circle cx="60" cy="55" r="9"></circle>
    <line x1="60" y1="55" x2="60" y2="70"></line>
    <line x1="60" y1="70" x2="60" y2="118"></line>
    <line x1="60" y1="70" x2="44" y2="76"></line>
    <line x1="60" y1="70" x2="76" y2="76"></line>
    <line x1="44" y1="76" x2="42" y2="100"></line>
    <line x1="42" y1="100" x2="40" y2="130"></line>
    <line x1="76" y1="76" x2="78" y2="100"></line>
    <line x1="78" y1="100" x2="80" y2="130"></line>
    <line x1="60" y1="118" x2="48" y2="150"></line>
    <line x1="48" y1="150" x2="44" y2="185"></line>
    <line x1="60" y1="118" x2="72" y2="150"></line>
    <line x1="72" y1="150" x2="76" y2="185"></line>
  </g>
  <circle cx="60" cy="185" r="3.5" fill="#ec3013"></circle>
  <text x="60" y="177" text-anchor="middle" fill="#ec3013" font-family="Archivo, system-ui, sans-serif" font-size="8">full foot</text>
  <g stroke="#201e1d" stroke-width="2.5" stroke-linecap="round" stroke-linejoin="round" fill="none">
    <circle cx="180" cy="50" r="9"></circle>
    <line x1="180" y1="50" x2="180" y2="65"></line>
    <line x1="180" y1="65" x2="180" y2="112"></line>
    <line x1="180" y1="65" x2="164" y2="76"></line>
    <line x1="180" y1="65" x2="196" y2="76"></line>
    <line x1="164" y1="76" x2="162" y2="100"></line>
    <line x1="162" y1="100" x2="160" y2="130"></line>
    <line x1="196" y1="76" x2="198" y2="100"></line>
    <line x1="198" y1="100" x2="200" y2="130"></line>
    <line x1="180" y1="112" x2="168" y2="150"></line>
    <line x1="168" y1="150" x2="166" y2="168"></line>
    <line x1="180" y1="112" x2="192" y2="150"></line>
    <line x1="192" y1="150" x2="194" y2="168"></line>
  </g>
  <circle cx="180" cy="168" r="3.5" fill="#ec3013"></circle>
  <text x="180" y="160" text-anchor="middle" fill="#ec3013" font-family="Archivo, system-ui, sans-serif" font-size="8">toes</text>
  <g stroke="#201e1d" stroke-width="2.5" stroke-linecap="round" stroke-linejoin="round" fill="none">
    <circle cx="300" cy="55" r="9"></circle>
    <line x1="300" y1="55" x2="300" y2="70"></line>
    <line x1="300" y1="70" x2="300" y2="118"></line>
    <line x1="300" y1="70" x2="284" y2="76"></line>
    <line x1="300" y1="70" x2="316" y2="76"></line>
    <line x1="284" y1="76" x2="282" y2="100"></line>
    <line x1="282" y1="100" x2="280" y2="130"></line>
    <line x1="316" y1="76" x2="318" y2="100"></line>
    <line x1="318" y1="100" x2="320" y2="130"></line>
    <line x1="300" y1="118" x2="288" y2="150"></line>
    <line x1="288" y1="150" x2="284" y2="185"></line>
    <line x1="300" y1="118" x2="312" y2="150"></line>
    <line x1="312" y1="150" x2="316" y2="185"></line>
  </g>
</svg>
