<?xml version="1.0" encoding="UTF-8"?>
<svg xmlns="http://www.w3.org/2000/svg" viewBox="0 0 360 220" fill="none" role="img" aria-label="Face pull: reach, pull, rotate">
  <title>Face pull form diagram</title>
  <rect width="360" height="220" fill="#f3f2f2"></rect>
  <text x="60" y="28" text-anchor="middle" fill="#6f6b69" font-family="Archivo, system-ui, sans-serif" font-size="11" letter-spacing="0.5">REACH</text>
  <text x="180" y="28" text-anchor="middle" fill="#6f6b69" font-family="Archivo, system-ui, sans-serif" font-size="11" letter-spacing="0.5">PULL</text>
  <text x="300" y="28" text-anchor="middle" fill="#6f6b69" font-family="Archivo, system-ui, sans-serif" font-size="11" letter-spacing="0.5">ROTATE</text>
  <line x1="20" y1="185" x2="100" y2="185" stroke="#201e1d" stroke-width="2"></line>
  <line x1="140" y1="185" x2="220" y2="185" stroke="#201e1d" stroke-width="2"></line>
  <line x1="260" y1="185" x2="340" y2="185" stroke="#201e1d" stroke-width="2"></line>
  <g stroke="#201e1d" stroke-width="2.5" stroke-linecap="round" stroke-linejoin="round" fill="none">
    <circle cx="60" cy="55" r="9"></circle>
    <line x1="60" y1="55" x2="60" y2="69"></line>
    <line x1="60" y1="69" x2="60" y2="118"></line>
    <line x1="60" y1="69" x2="58" y2="73"></line>
    <line x1="58" y1="73" x2="78" y2="79"></line>
    <line x1="78" y1="79" x2="96" y2="77"></line>
    <line x1="58" y1="73" x2="82" y2="85"></line>
    <line x1="82" y1="85" x2="100" y2="83"></line>
    <line x1="60" y1="118" x2="52" y2="145"></line>
    <line x1="52" y1="145" x2="44" y2="185"></line>
    <line x1="60" y1="118" x2="74" y2="147"></line>
    <line x1="74" y1="147" x2="78" y2="185"></line>
  </g>
  <line x1="102" y1="95" x2="118" y2="95" stroke="#201e1d" stroke-width="3" stroke-linecap="round"></line>
  <circle cx="100" cy="98" r="3.5" fill="#ec3013"></circle>
  <text x="100" y="90" text-anchor="middle" fill="#ec3013" font-family="Archivo, system-ui, sans-serif" font-size="8">rope</text>
  <g stroke="#201e1d" stroke-width="2.5" stroke-linecap="round" stroke-linejoin="round" fill="none">
    <circle cx="180" cy="55" r="9"></circle>
    <line x1="180" y1="55" x2="180" y2="69"></line>
    <line x1="180" y1="69" x2="180" y2="118"></line>
    <line x1="180" y1="69" x2="178" y2="73"></line>
    <line x1="178" y1="73" x2="172" y2="82"></line>
    <line x1="172" y1="82" x2="184" y2="72"></line>
    <line x1="178" y1="73" x2="202" y2="78"></line>
    <line x1="202" y1="78" x2="196" y2="68"></line>
    <line x1="180" y1="118" x2="172" y2="145"></line>
    <line x1="172" y1="145" x2="164" y2="185"></line>
    <line x1="180" y1="118" x2="194" y2="147"></line>
    <line x1="194" y1="147" x2="198" y2="185"></line>
  </g>
  <path d="M218 110 L198 78" stroke="#ec3013" stroke-width="2" stroke-linecap="round"></path>
  <polygon points="198,78 205.63198473604578,82.66399067202799 198.84799830400507,86.90398219205342" fill="#ec3013"></polygon>
  <text x="218" y="94" fill="#ec3013" font-family="Archivo, system-ui, sans-serif" font-size="9">high</text>
  <g stroke="#201e1d" stroke-width="2.5" stroke-linecap="round" stroke-linejoin="round" fill="none">
    <circle cx="300" cy="55" r="9"></circle>
    <line x1="300" y1="55" x2="300" y2="69"></line>
    <line x1="300" y1="69" x2="300" y2="118"></line>
    <line x1="300" y1="69" x2="298" y2="73"></line>
    <line x1="298" y1="73" x2="282" y2="75"></line>
    <line x1="282" y1="75" x2="294" y2="62"></line>
    <line x1="298" y1="73" x2="328" y2="72"></line>
    <line x1="328" y1="72" x2="318" y2="58"></line>
    <line x1="300" y1="118" x2="292" y2="145"></line>
    <line x1="292" y1="145" x2="284" y2="185"></line>
    <line x1="300" y1="118" x2="314" y2="147"></line>
    <line x1="314" y1="147" x2="318" y2="185"></line>
  </g>
  <circle cx="300" cy="68" r="3.5" fill="#ec3013"></circle>
  <text x="300" y="60" text-anchor="middle" fill="#ec3013" font-family="Archivo, system-ui, sans-serif" font-size="8">face</text>
</svg>
