<?xml version="1.0" encoding="UTF-8"?>
<svg xmlns="http://www.w3.org/2000/svg" viewBox="0 0 360 220" fill="none" role="img" aria-label="Inchworm form: stand, walk hands out, walk feet in">
  <title>Inchworm form diagram</title>
  <rect width="360" height="220" fill="#f3f2f2"></rect>
  <text x="60" y="28" text-anchor="middle" fill="#6f6b69" font-family="Archivo, system-ui, sans-serif" font-size="11" letter-spacing="0.5">STAND</text>
  <text x="180" y="28" text-anchor="middle" fill="#6f6b69" font-family="Archivo, system-ui, sans-serif" font-size="11" letter-spacing="0.5">WALK OUT</text>
  <text x="300" y="28" text-anchor="middle" fill="#6f6b69" font-family="Archivo, system-ui, sans-serif" font-size="11" letter-spacing="0.5">WALK IN</text>
  <line x1="20" y1="185" x2="100" y2="185" stroke="#201e1d" stroke-width="2"></line>
  <line x1="140" y1="185" x2="220" y2="185" stroke="#201e1d" stroke-width="2"></line>
  <line x1="260" y1="185" x2="340" y2="185" stroke="#201e1d" stroke-width="2"></line>
  <g stroke="#201e1d" stroke-width="2.5" stroke-linecap="round" stroke-linejoin="round" fill="none">
    <circle cx="60" cy="55" r="9"></circle>
    <line x1="60" y1="55" x2="60" y2="66"></line>
    <line x1="60" y1="66" x2="60" y2="115"></line>
    <line x1="60" y1="66" x2="60" y2="66"></line>
    <line x1="60" y1="66" x2="60" y2="66"></line>
    <line x1="60" y1="66" x2="50" y2="100"></line>
    <line x1="60" y1="66" x2="70" y2="100"></line>
    <line x1="60" y1="115" x2="50" y2="175"></line>
    <line x1="60" y1="115" x2="70" y2="175"></line>
  </g>
  <circle cx="60" cy="115" r="3.5" fill="#ec3013"></circle>
  <g stroke="#201e1d" stroke-width="2.5" stroke-linecap="round" stroke-linejoin="round" fill="none">
    <circle cx="210" cy="100" r="9"></circle>
    <line x1="210" y1="100" x2="210" y2="111"></line>
    <line x1="210" y1="111" x2="160" y2="125"></line>
    <line x1="210" y1="111" x2="210" y2="111"></line>
    <line x1="210" y1="111" x2="210" y2="111"></line>
    <line x1="210" y1="111" x2="230" y2="155"></line>
    <line x1="210" y1="111" x2="220" y2="155"></line>
    <line x1="160" y1="125" x2="145" y2="175"></line>
    <line x1="160" y1="125" x2="155" y2="175"></line>
  </g>
  <path d="M200 140 L225 155" stroke="#ec3013" stroke-width="2" stroke-linecap="round"></path>
  <polygon points="225,155 216.08207357258954,154.31400565942997 220.19803961600974,147.45406225372963" fill="#ec3013"></polygon>
  <text x="222.5" y="147.5" fill="#ec3013" font-family="Archivo, system-ui, sans-serif" font-size="9">hands</text>
  <g stroke="#201e1d" stroke-width="2.5" stroke-linecap="round" stroke-linejoin="round" fill="none">
    <circle cx="310" cy="85" r="9"></circle>
    <line x1="310" y1="85" x2="310" y2="96"></line>
    <line x1="310" y1="96" x2="290" y2="115"></line>
    <line x1="310" y1="96" x2="310" y2="96"></line>
    <line x1="310" y1="96" x2="310" y2="96"></line>
    <line x1="310" y1="96" x2="330" y2="155"></line>
    <line x1="310" y1="96" x2="320" y2="155"></line>
    <line x1="290" y1="115" x2="275" y2="155"></line>
    <line x1="290" y1="115" x2="285" y2="155"></line>
  </g>
  <path d="M280 160 L290 155" stroke="#ec3013" stroke-width="2" stroke-linecap="round"></path>
  <polygon points="290,155 284.63343685400054,162.1554175279993 281.05572809000085,155" fill="#ec3013"></polygon>
  <text x="295" y="157.5" fill="#ec3013" font-family="Archivo, system-ui, sans-serif" font-size="9">feet</text>
</svg>
