<?xml version="1.0" encoding="UTF-8"?>
<svg xmlns="http://www.w3.org/2000/svg" viewBox="0 0 360 220" fill="none" role="img" aria-label="Kettlebell swing form: hike, snap, float">
  <title>Kettlebell swing form diagram</title>
  <rect width="360" height="220" fill="#f3f2f2"></rect>
  <text x="60" y="28" text-anchor="middle" fill="#6f6b69" font-family="Archivo, system-ui, sans-serif" font-size="11" letter-spacing="0.5">HIKE</text>
  <text x="180" y="28" text-anchor="middle" fill="#6f6b69" font-family="Archivo, system-ui, sans-serif" font-size="11" letter-spacing="0.5">SNAP</text>
  <text x="300" y="28" text-anchor="middle" fill="#6f6b69" font-family="Archivo, system-ui, sans-serif" font-size="11" letter-spacing="0.5">FLOAT</text>
  <line x1="20" y1="185" x2="100" y2="185" stroke="#201e1d" stroke-width="2"></line>
  <line x1="140" y1="185" x2="220" y2="185" stroke="#201e1d" stroke-width="2"></line>
  <line x1="260" y1="185" x2="340" y2="185" stroke="#201e1d" stroke-width="2"></line>
  <g stroke="#201e1d" stroke-width="2.5" stroke-linecap="round" stroke-linejoin="round" fill="none">
    <circle cx="70" cy="85" r="9"></circle>
    <line x1="70" y1="85" x2="70" y2="96"></line>
    <line x1="70" y1="96" x2="55" y2="130"></line>
    <line x1="70" y1="96" x2="70" y2="96"></line>
    <line x1="70" y1="96" x2="70" y2="96"></line>
    <line x1="70" y1="96" x2="45" y2="155"></line>
    <line x1="70" y1="96" x2="55" y2="155"></line>
    <line x1="55" y1="130" x2="40" y2="175"></line>
    <line x1="55" y1="130" x2="75" y2="175"></line>
  </g>
  <circle cx="50" cy="160" r="8" fill="none" stroke="#201e1d" stroke-width="2"></circle>
  <circle cx="55" cy="130" r="3.5" fill="#ec3013"></circle>
  <text x="55" y="122" text-anchor="middle" fill="#ec3013" font-family="Archivo, system-ui, sans-serif" font-size="8">hinge</text>
  <g stroke="#201e1d" stroke-width="2.5" stroke-linecap="round" stroke-linejoin="round" fill="none">
    <circle cx="185" cy="55" r="9"></circle>
    <line x1="185" y1="55" x2="185" y2="66"></line>
    <line x1="185" y1="66" x2="185" y2="115"></line>
    <line x1="185" y1="66" x2="185" y2="66"></line>
    <line x1="185" y1="66" x2="185" y2="66"></line>
    <line x1="185" y1="66" x2="175" y2="95"></line>
    <line x1="185" y1="66" x2="195" y2="95"></line>
    <line x1="185" y1="115" x2="170" y2="175"></line>
    <line x1="185" y1="115" x2="200" y2="175"></line>
  </g>
  <circle cx="185" cy="88" r="8" fill="none" stroke="#201e1d" stroke-width="2"></circle>
  <path d="M185 145 L185 120" stroke="#ec3013" stroke-width="2" stroke-linecap="round"></path>
  <polygon points="185,120 189,128 181,128" fill="#ec3013"></polygon>
  <text x="195" y="132.5" fill="#ec3013" font-family="Archivo, system-ui, sans-serif" font-size="9">hips</text>
  <g stroke="#201e1d" stroke-width="2.5" stroke-linecap="round" stroke-linejoin="round" fill="none">
    <circle cx="300" cy="55" r="9"></circle>
    <line x1="300" y1="55" x2="300" y2="66"></line>
    <line x1="300" y1="66" x2="300" y2="115"></line>
    <line x1="300" y1="66" x2="300" y2="66"></line>
    <line x1="300" y1="66" x2="300" y2="66"></line>
    <line x1="300" y1="66" x2="290" y2="70"></line>
    <line x1="300" y1="66" x2="310" y2="70"></line>
    <line x1="300" y1="115" x2="288" y2="175"></line>
    <line x1="300" y1="115" x2="312" y2="175"></line>
  </g>
  <circle cx="300" cy="58" r="8" fill="none" stroke="#201e1d" stroke-width="2"></circle>
  <circle cx="300" cy="58" r="3.5" fill="#ec3013"></circle>
  <text x="300" y="50" text-anchor="middle" fill="#ec3013" font-family="Archivo, system-ui, sans-serif" font-size="8">float</text>
</svg>
