<?xml version="1.0" encoding="UTF-8"?>
<svg xmlns="http://www.w3.org/2000/svg" viewBox="0 0 360 220" fill="none" role="img" aria-label="Shared hinge pattern: setup, hinge, lockout">
  <title>Hinge pattern form diagram</title>
  <rect width="360" height="220" fill="#f3f2f2"></rect>
  <text x="60" y="28" text-anchor="middle" fill="#6f6b69" font-family="Archivo, system-ui, sans-serif" font-size="11" letter-spacing="0.5">SETUP</text>
  <text x="180" y="28" text-anchor="middle" fill="#6f6b69" font-family="Archivo, system-ui, sans-serif" font-size="11" letter-spacing="0.5">HINGE</text>
  <text x="300" y="28" text-anchor="middle" fill="#6f6b69" font-family="Archivo, system-ui, sans-serif" font-size="11" letter-spacing="0.5">LOCK</text>
  <line x1="20" y1="185" x2="100" y2="185" stroke="#201e1d" stroke-width="2"></line>
  <line x1="140" y1="185" x2="220" y2="185" stroke="#201e1d" stroke-width="2"></line>
  <line x1="260" y1="185" x2="340" y2="185" stroke="#201e1d" stroke-width="2"></line>
  <g stroke="#201e1d" stroke-width="2.5" stroke-linecap="round" stroke-linejoin="round" fill="none">
    <circle cx="60" cy="60" r="9"></circle>
    <line x1="60" y1="60" x2="60" y2="71"></line>
    <line x1="60" y1="71" x2="60" y2="115"></line>
    <line x1="60" y1="71" x2="60" y2="71"></line>
    <line x1="60" y1="71" x2="60" y2="71"></line>
    <line x1="60" y1="71" x2="50" y2="145"></line>
    <line x1="60" y1="71" x2="70" y2="145"></line>
    <line x1="60" y1="115" x2="48" y2="175"></line>
    <line x1="60" y1="115" x2="72" y2="175"></line>
  </g>
  <line x1="40" y1="150" x2="80" y2="150" stroke="#201e1d" stroke-width="3" stroke-linecap="round"></line>
  <circle cx="60" cy="115" r="3.5" fill="#ec3013"></circle>
  <text x="60" y="107" text-anchor="middle" fill="#ec3013" font-family="Archivo, system-ui, sans-serif" font-size="8">soft knee</text>
  <g stroke="#201e1d" stroke-width="2.5" stroke-linecap="round" stroke-linejoin="round" fill="none">
    <circle cx="185" cy="85" r="9"></circle>
    <line x1="185" y1="85" x2="185" y2="96"></line>
    <line x1="185" y1="96" x2="170" y2="140"></line>
    <line x1="185" y1="96" x2="185" y2="96"></line>
    <line x1="185" y1="96" x2="185" y2="96"></line>
    <line x1="185" y1="96" x2="160" y2="155"></line>
    <line x1="185" y1="96" x2="180" y2="155"></line>
    <line x1="170" y1="140" x2="160" y2="175"></line>
    <line x1="170" y1="140" x2="190" y2="175"></line>
  </g>
  <line x1="150" y1="160" x2="195" y2="160" stroke="#201e1d" stroke-width="3" stroke-linecap="round"></line>
  <circle cx="170" cy="140" r="3.5" fill="#ec3013"></circle>
  <text x="170" y="132" text-anchor="middle" fill="#ec3013" font-family="Archivo, system-ui, sans-serif" font-size="8">hips back</text>
  <g stroke="#201e1d" stroke-width="2.5" stroke-linecap="round" stroke-linejoin="round" fill="none">
    <circle cx="300" cy="55" r="9"></circle>
    <line x1="300" y1="55" x2="300" y2="66"></line>
    <line x1="300" y1="66" x2="300" y2="115"></line>
    <line x1="300" y1="66" x2="300" y2="66"></line>
    <line x1="300" y1="66" x2="300" y2="66"></line>
    <line x1="300" y1="66" x2="290" y2="125"></line>
    <line x1="300" y1="66" x2="310" y2="125"></line>
    <line x1="300" y1="115" x2="288" y2="175"></line>
    <line x1="300" y1="115" x2="312" y2="175"></line>
  </g>
  <line x1="280" y1="128" x2="320" y2="128" stroke="#201e1d" stroke-width="3" stroke-linecap="round"></line>
  <circle cx="300" cy="115" r="3.5" fill="#ec3013"></circle>
  <text x="300" y="107" text-anchor="middle" fill="#ec3013" font-family="Archivo, system-ui, sans-serif" font-size="8">lock</text>
</svg>
