<?xml version="1.0" encoding="UTF-8"?>
<svg xmlns="http://www.w3.org/2000/svg" viewBox="0 0 360 220" fill="none" role="img" aria-label="Pike: pike, lower, press">
  <title>Pike push-up form diagram</title>
  <rect width="360" height="220" fill="#f3f2f2"></rect>
  <text x="60" y="28" text-anchor="middle" fill="#6f6b69" font-family="Archivo, system-ui, sans-serif" font-size="11" letter-spacing="0.5">PIKE</text>
  <text x="180" y="28" text-anchor="middle" fill="#6f6b69" font-family="Archivo, system-ui, sans-serif" font-size="11" letter-spacing="0.5">LOWER</text>
  <text x="300" y="28" text-anchor="middle" fill="#6f6b69" font-family="Archivo, system-ui, sans-serif" font-size="11" letter-spacing="0.5">PRESS</text>
  <line x1="20" y1="185" x2="100" y2="185" stroke="#201e1d" stroke-width="2"></line>
  <line x1="140" y1="185" x2="220" y2="185" stroke="#201e1d" stroke-width="2"></line>
  <line x1="260" y1="185" x2="340" y2="185" stroke="#201e1d" stroke-width="2"></line>
  <g stroke="#201e1d" stroke-width="2.5" stroke-linecap="round" stroke-linejoin="round" fill="none">
    <circle cx="90" cy="115" r="9"></circle>
    <line x1="90" y1="115" x2="78" y2="105"></line>
    <line x1="78" y1="105" x2="52" y2="78"></line>
    <line x1="78" y1="105" x2="74" y2="108"></line>
    <line x1="74" y1="108" x2="92" y2="181"></line>
    <line x1="74" y1="108" x2="84" y2="181"></line>
    <line x1="52" y1="78" x2="22" y2="181"></line>
    <line x1="52" y1="78" x2="30" y2="181"></line>
  </g>
  <circle cx="52" cy="78" r="3.5" fill="#ec3013"></circle>
  <text x="52" y="70" text-anchor="middle" fill="#ec3013" font-family="Archivo, system-ui, sans-serif" font-size="8">hips high</text>
  <g stroke="#201e1d" stroke-width="2.5" stroke-linecap="round" stroke-linejoin="round" fill="none">
    <circle cx="215" cy="145" r="9"></circle>
    <line x1="215" y1="145" x2="200" y2="128"></line>
    <line x1="200" y1="128" x2="172" y2="82"></line>
    <line x1="200" y1="128" x2="196" y2="132"></line>
    <line x1="196" y1="132" x2="214" y2="181"></line>
    <line x1="196" y1="132" x2="206" y2="181"></line>
    <line x1="172" y1="82" x2="142" y2="181"></line>
    <line x1="172" y1="82" x2="150" y2="181"></line>
  </g>
  <path d="M202 110 L202 140" stroke="#ec3013" stroke-width="2" stroke-linecap="round"></path>
  <polygon points="202,140 198,132 206,132" fill="#ec3013"></polygon>
  <text x="212" y="125" fill="#ec3013" font-family="Archivo, system-ui, sans-serif" font-size="9">head</text>
  <g stroke="#201e1d" stroke-width="2.5" stroke-linecap="round" stroke-linejoin="round" fill="none">
    <circle cx="330" cy="115" r="9"></circle>
    <line x1="330" y1="115" x2="318" y2="105"></line>
    <line x1="318" y1="105" x2="292" y2="78"></line>
    <line x1="318" y1="105" x2="314" y2="108"></line>
    <line x1="314" y1="108" x2="332" y2="181"></line>
    <line x1="314" y1="108" x2="324" y2="181"></line>
    <line x1="292" y1="78" x2="262" y2="181"></line>
    <line x1="292" y1="78" x2="270" y2="181"></line>
  </g>
  <path d="M322 140 L322 108" stroke="#ec3013" stroke-width="2" stroke-linecap="round"></path>
  <polygon points="322,108 326,116 318,116" fill="#ec3013"></polygon>
  <text x="332" y="124" fill="#ec3013" font-family="Archivo, system-ui, sans-serif" font-size="9">press</text>
</svg>
