<?xml version="1.0" encoding="UTF-8"?>
<svg xmlns="http://www.w3.org/2000/svg" viewBox="0 0 360 220" fill="none" role="img" aria-label="Thread needle: setup, thread, open">
  <title>Thread the needle form diagram</title>
  <rect width="360" height="220" fill="#f3f2f2"></rect>
  <text x="60" y="28" text-anchor="middle" fill="#6f6b69" font-family="Archivo, system-ui, sans-serif" font-size="11" letter-spacing="0.5">SETUP</text>
  <text x="180" y="28" text-anchor="middle" fill="#6f6b69" font-family="Archivo, system-ui, sans-serif" font-size="11" letter-spacing="0.5">THREAD</text>
  <text x="300" y="28" text-anchor="middle" fill="#6f6b69" font-family="Archivo, system-ui, sans-serif" font-size="11" letter-spacing="0.5">OPEN</text>
  <line x1="20" y1="185" x2="100" y2="185" stroke="#201e1d" stroke-width="2"></line>
  <line x1="140" y1="185" x2="220" y2="185" stroke="#201e1d" stroke-width="2"></line>
  <line x1="260" y1="185" x2="340" y2="185" stroke="#201e1d" stroke-width="2"></line>
  <g stroke="#201e1d" stroke-width="2.5" stroke-linecap="round" stroke-linejoin="round" fill="none">
    <circle cx="84" cy="108" r="9"></circle>
    <line x1="84" y1="108" x2="72" y2="118"></line>
    <line x1="72" y1="118" x2="48" y2="130"></line>
    <line x1="72" y1="118" x2="70" y2="120"></line>
    <line x1="70" y1="120" x2="90" y2="181"></line>
    <line x1="70" y1="120" x2="68" y2="181"></line>
    <line x1="48" y1="130" x2="42" y2="167"></line>
    <line x1="42" y1="167" x2="30" y2="185"></line>
    <line x1="48" y1="130" x2="56" y2="167"></line>
    <line x1="56" y1="167" x2="46" y2="185"></line>
  </g>
  <g stroke="#201e1d" stroke-width="2.5" stroke-linecap="round" stroke-linejoin="round" fill="none">
    <circle cx="185" cy="148" r="9"></circle>
    <line x1="185" y1="148" x2="180" y2="138"></line>
    <line x1="180" y1="138" x2="170" y2="132"></line>
    <line x1="180" y1="138" x2="182" y2="140"></line>
    <line x1="182" y1="140" x2="152" y2="181"></line>
    <line x1="182" y1="140" x2="212" y2="181"></line>
    <line x1="170" y1="132" x2="164" y2="167"></line>
    <line x1="164" y1="167" x2="152" y2="185"></line>
    <line x1="170" y1="132" x2="178" y2="167"></line>
    <line x1="178" y1="167" x2="168" y2="185"></line>
  </g>
  <path d="M202 142 L162 158" stroke="#ec3013" stroke-width="2" stroke-linecap="round"></path>
  <polygon points="162,158 167.94225082166565,151.31496782562613 170.91337623249848,158.74278135270822" fill="#ec3013"></polygon>
  <text x="192" y="150" fill="#ec3013" font-family="Archivo, system-ui, sans-serif" font-size="9">under</text>
  <g stroke="#201e1d" stroke-width="2.5" stroke-linecap="round" stroke-linejoin="round" fill="none">
    <circle cx="316" cy="90" r="9"></circle>
    <line x1="316" y1="90" x2="308" y2="112"></line>
    <line x1="308" y1="112" x2="290" y2="130"></line>
    <line x1="308" y1="112" x2="304" y2="114"></line>
    <line x1="304" y1="114" x2="338" y2="75"></line>
    <line x1="304" y1="114" x2="294" y2="181"></line>
    <line x1="290" y1="130" x2="282" y2="167"></line>
    <line x1="282" y1="167" x2="270" y2="185"></line>
    <line x1="290" y1="130" x2="296" y2="167"></line>
    <line x1="296" y1="167" x2="286" y2="185"></line>
  </g>
  <circle cx="338" cy="75" r="3.5" fill="#ec3013"></circle>
  <text x="338" y="67" text-anchor="middle" fill="#ec3013" font-family="Archivo, system-ui, sans-serif" font-size="8">open</text>
</svg>
