<?xml version="1.0" encoding="UTF-8"?>
<svg xmlns="http://www.w3.org/2000/svg" viewBox="0 0 360 220" fill="none" role="img" aria-label="Thread needle: setup, thread, open">
  <title>Thread the needle form diagram</title>
  <rect width="360" height="220" fill="#f3f2f2"></rect>
  <text x="60" y="28" text-anchor="middle" fill="#6f6b69" font-family="Archivo, system-ui, sans-serif" font-size="11" letter-spacing="0.5">SETUP</text>
  <text x="180" y="28" text-anchor="middle" fill="#6f6b69" font-family="Archivo, system-ui, sans-serif" font-size="11" letter-spacing="0.5">THREAD</text>
  <text x="300" y="28" text-anchor="middle" fill="#6f6b69" font-family="Archivo, system-ui, sans-serif" font-size="11" letter-spacing="0.5">OPEN</text>
  <line x1="20" y1="185" x2="100" y2="185" stroke="#201e1d" stroke-width="2"></line>
  <line x1="140" y1="185" x2="220" y2="185" stroke="#201e1d" stroke-width="2"></line>
  <line x1="260" y1="185" x2="340" y2="185" stroke="#201e1d" stroke-width="2"></line>
  <g stroke="#201e1d" stroke-width="2.5" stroke-linecap="round" stroke-linejoin="round" fill="none">
    <circle cx="82" cy="105" r="9"></circle>
    <line x1="82" y1="105" x2="72" y2="115"></line>
    <line x1="72" y1="115" x2="48" y2="128"></line>
    <line x1="72" y1="115" x2="70" y2="118"></line>
    <line x1="70" y1="118" x2="88" y2="180"></line>
    <line x1="70" y1="118" x2="68" y2="180"></line>
    <line x1="48" y1="128" x2="42" y2="170"></line>
    <line x1="42" y1="170" x2="30" y2="185"></line>
    <line x1="48" y1="128" x2="55" y2="170"></line>
    <line x1="55" y1="170" x2="45" y2="185"></line>
  </g>
  <g stroke="#201e1d" stroke-width="2.5" stroke-linecap="round" stroke-linejoin="round" fill="none">
    <circle cx="185" cy="145" r="9"></circle>
    <line x1="185" y1="145" x2="180" y2="135"></line>
    <line x1="180" y1="135" x2="170" y2="130"></line>
    <line x1="180" y1="135" x2="182" y2="138"></line>
    <line x1="182" y1="138" x2="155" y2="180"></line>
    <line x1="182" y1="138" x2="210" y2="180"></line>
    <line x1="170" y1="130" x2="165" y2="170"></line>
    <line x1="165" y1="170" x2="152" y2="185"></line>
    <line x1="170" y1="130" x2="178" y2="170"></line>
    <line x1="178" y1="170" x2="168" y2="185"></line>
  </g>
  <path d="M200 140 L165 155" stroke="#ec3013" stroke-width="2" stroke-linecap="round"></path>
  <polygon points="165,155 170.77748304582778,148.17206549129443 173.92883743446114,155.5252257314389" fill="#ec3013"></polygon>
  <text x="192.5" y="147.5" fill="#ec3013" font-family="Archivo, system-ui, sans-serif" font-size="9">under</text>
  <g stroke="#201e1d" stroke-width="2.5" stroke-linecap="round" stroke-linejoin="round" fill="none">
    <circle cx="315" cy="90" r="9"></circle>
    <line x1="315" y1="90" x2="308" y2="110"></line>
    <line x1="308" y1="110" x2="290" y2="128"></line>
    <line x1="308" y1="110" x2="305" y2="112"></line>
    <line x1="305" y1="112" x2="335" y2="75"></line>
    <line x1="305" y1="112" x2="295" y2="180"></line>
    <line x1="290" y1="128" x2="282" y2="170"></line>
    <line x1="282" y1="170" x2="270" y2="185"></line>
    <line x1="290" y1="128" x2="295" y2="170"></line>
    <line x1="295" y1="170" x2="285" y2="185"></line>
  </g>
  <circle cx="335" cy="75" r="3.5" fill="#ec3013"></circle>
  <text x="335" y="67" text-anchor="middle" fill="#ec3013" font-family="Archivo, system-ui, sans-serif" font-size="8">open</text>
</svg>
